custom-analysis
version=1
nRows=4
nColumns=146
inDegrees=no

This file contains tibia displacement and acting force.

Units are S.I. units (seconds, meters, Newtons, ...)
Angles are in degrees.

endheader
time	APT	SIT	knee_angle	aACL_R_force	pACL_R_force	aPCL_R_force	pPCL_R_force	aMCL_R_force	mMCL_R_force	pMCL_R_force	aLCL_R_force	mLCL_R_force	pLCL_R_force	aPCL_L_force	pPCL_L_force	aMCL_L_force	aLCL_L_force	aACL_R_length	pACL_R_length	aPCL_R_length	pPCL_R_length	aMCL_R_length	mMCL_R_length	pMCL_R_length	aLCL_R_length	mLCL_R_length	pLCL_R_length	aPCL_L_length	pPCL_L_length	aMCL_L_length	aLCL_L_length	aACL_R_strain	pACL_R_strain	aPCL_R_strain	pPCL_R_strain	aMCL_R_strain	mMCL_R_strain	pMCL_R_strain	aLCL_R_strain	mLCL_R_strain	pLCL_R_strain	aPCL_L_strain	pPCL_L_strain	aMCL_L_strain	aLCL_L_strain	femur_lat_meniscii_l.femur_lat_l.force.X	femur_lat_meniscii_l.femur_lat_l.force.Y	femur_lat_meniscii_l.femur_lat_l.force.Z	femur_lat_meniscii_l.femur_lat_l.torque.X	femur_lat_meniscii_l.femur_lat_l.torque.Y	femur_lat_meniscii_l.femur_lat_l.torque.Z	femur_lat_meniscii_l.meniscus_lat_l.force.X	femur_lat_meniscii_l.meniscus_lat_l.force.Y	femur_lat_meniscii_l.meniscus_lat_l.force.Z	femur_lat_meniscii_l.meniscus_lat_l.torque.X	femur_lat_meniscii_l.meniscus_lat_l.torque.Y	femur_lat_meniscii_l.meniscus_lat_l.torque.Z	femur_med_meniscii_l.femur_med_l.force.X	femur_med_meniscii_l.femur_med_l.force.Y	femur_med_meniscii_l.femur_med_l.force.Z	femur_med_meniscii_l.femur_med_l.torque.X	femur_med_meniscii_l.femur_med_l.torque.Y	femur_med_meniscii_l.femur_med_l.torque.Z	femur_med_meniscii_l.meniscus_med_l.force.X	femur_med_meniscii_l.meniscus_med_l.force.Y	femur_med_meniscii_l.meniscus_med_l.force.Z	femur_med_meniscii_l.meniscus_med_l.torque.X	femur_med_meniscii_l.meniscus_med_l.torque.Y	femur_med_meniscii_l.meniscus_med_l.torque.Z	femur_lat_meniscii_r.femur_lat_r.force.X	femur_lat_meniscii_r.femur_lat_r.force.Y	femur_lat_meniscii_r.femur_lat_r.force.Z	femur_lat_meniscii_r.femur_lat_r.torque.X	femur_lat_meniscii_r.femur_lat_r.torque.Y	femur_lat_meniscii_r.femur_lat_r.torque.Z	femur_lat_meniscii_r.meniscus_lat_r.force.X	femur_lat_meniscii_r.meniscus_lat_r.force.Y	femur_lat_meniscii_r.meniscus_lat_r.force.Z	femur_lat_meniscii_r.meniscus_lat_r.torque.X	femur_lat_meniscii_r.meniscus_lat_r.torque.Y	femur_lat_meniscii_r.meniscus_lat_r.torque.Z	femur_med_meniscii_r.femur_med_r.force.X	femur_med_meniscii_r.femur_med_r.force.Y	femur_med_meniscii_r.femur_med_r.force.Z	femur_med_meniscii_r.femur_med_r.torque.X	femur_med_meniscii_r.femur_med_r.torque.Y	femur_med_meniscii_r.femur_med_r.torque.Z	femur_med_meniscii_r.meniscus_med_r.force.X	femur_med_meniscii_r.meniscus_med_r.force.Y	femur_med_meniscii_r.meniscus_med_r.force.Z	femur_med_meniscii_r.meniscus_med_r.torque.X	femur_med_meniscii_r.meniscus_med_r.torque.Y	femur_med_meniscii_r.meniscus_med_r.torque.Z	femur_med_tibia_l.tibia_upper_l.force.X	femur_med_tibia_l.tibia_upper_l.force.Y	femur_med_tibia_l.tibia_upper_l.force.Z	femur_med_tibia_l.tibia_upper_l.torque.X	femur_med_tibia_l.tibia_upper_l.torque.Y	femur_med_tibia_l.tibia_upper_l.torque.Z	femur_med_tibia_l.femur_med_l.force.X	femur_med_tibia_l.femur_med_l.force.Y	femur_med_tibia_l.femur_med_l.force.Z	femur_med_tibia_l.femur_med_l.torque.X	femur_med_tibia_l.femur_med_l.torque.Y	femur_med_tibia_l.femur_med_l.torque.Z	femur_lat_tibia_l.tibia_upper_l.force.X	femur_lat_tibia_l.tibia_upper_l.force.Y	femur_lat_tibia_l.tibia_upper_l.force.Z	femur_lat_tibia_l.tibia_upper_l.torque.X	femur_lat_tibia_l.tibia_upper_l.torque.Y	femur_lat_tibia_l.tibia_upper_l.torque.Z	femur_lat_tibia_l.femur_lat_l.force.X	femur_lat_tibia_l.femur_lat_l.force.Y	femur_lat_tibia_l.femur_lat_l.force.Z	femur_lat_tibia_l.femur_lat_l.torque.X	femur_lat_tibia_l.femur_lat_l.torque.Y	femur_lat_tibia_l.femur_lat_l.torque.Z	femur_med_tibia_r.tibia_upper_r.force.X	femur_med_tibia_r.tibia_upper_r.force.Y	femur_med_tibia_r.tibia_upper_r.force.Z	femur_med_tibia_r.tibia_upper_r.torque.X	femur_med_tibia_r.tibia_upper_r.torque.Y	femur_med_tibia_r.tibia_upper_r.torque.Z	femur_med_tibia_r.femur_med_r.force.X	femur_med_tibia_r.femur_med_r.force.Y	femur_med_tibia_r.femur_med_r.force.Z	femur_med_tibia_r.femur_med_r.torque.X	femur_med_tibia_r.femur_med_r.torque.Y	femur_med_tibia_r.femur_med_r.torque.Z	femur_lat_tibia_r.tibia_upper_r.force.X	femur_lat_tibia_r.tibia_upper_r.force.Y	femur_lat_tibia_r.tibia_upper_r.force.Z	femur_lat_tibia_r.tibia_upper_r.torque.X	femur_lat_tibia_r.tibia_upper_r.torque.Y	femur_lat_tibia_r.tibia_upper_r.torque.Z	femur_lat_tibia_r.femur_lat_r.force.X	femur_lat_tibia_r.femur_lat_r.force.Y	femur_lat_tibia_r.femur_lat_r.force.Z	femur_lat_tibia_r.femur_lat_r.torque.X	femur_lat_tibia_r.femur_lat_r.torque.Y	femur_lat_tibia_r.femur_lat_r.torque.Z	femur_lat_meniscii_force_r	femur_med_meniscii_force_r	femur_lat_tibia_force_r	femur_med_tibia_force_r
      0.34357613	      0.00308583	      0.00031784	      1.66574369	     24.46533471	     45.44140091	      0.00000000	      0.00000000	      0.00000000	     18.04313583	     45.92188907	      0.83276818	      0.00000000	      0.04255717	      0.00000000	      0.00000000	      0.00000001	      0.00000000	      0.03275113	      0.02699935	      0.02787663	      0.02806129	      0.05783251	      0.06227451	      0.06449614	      0.05636709	      0.05466926	      0.05274996	      0.01525851	      0.01651186	      0.06550154	      0.04489616	      0.05630064	      0.07744421	     -0.10350992	     -0.06111213	     -0.02023640	      0.04149297	      0.07983085	      0.00696523	     -0.02928587	      0.00778064	      0.00000079	     -0.32847694	      0.00000060	     -0.00000086	      2.76307435	     50.99597937	     -9.56042239	      5.21997485	     -0.02578839	      1.48581788	     -2.76307435	    -50.99597937	      9.56042239	     -1.74637766	      0.02558040	     -0.48301696	     -3.31599387	     20.97615968	     -3.40468921	      0.94473225	     -0.02138609	     -1.00501789	      3.31599387	    -20.97615968	      3.40468921	      0.28075727	      0.00368718	     -0.29758878	     11.78410419	     83.38528758	     -0.34163608	     -1.98216852	      0.31023359	      5.31730476	    -11.78410419	    -83.38528758	      0.34163608	      2.62049413	     -0.38078156	     -0.51853574	     57.49658578	    103.72481241	     -2.65670118	      3.25452917	     -1.20272824	     24.64131907	    -57.49658578	   -103.72481241	      2.65670118	     -1.60124065	      0.86161898	     -2.17851743	      0.00000000	      0.00000000	      0.00000000	      0.00000000	      0.00000000	      0.00000000	      0.00000000	      0.00000000	      0.00000000	      0.00000000	      0.00000000	      0.00000000	      0.00000000	      0.00000000	      0.00000000	      0.00000000	      0.00000000	      0.00000000	      0.00000000	      0.00000000	      0.00000000	      0.00000000	      0.00000000	      0.00000000	      0.00000000	      0.00000000	      0.00000000	      0.00000000	      0.00000000	      0.00000000	      0.00000000	      0.00000000	      0.00000000	      0.00000000	      0.00000000	      0.00000000	      0.06440145	    -13.27069400	     -3.35748348	      0.50327238	      0.01052329	     -0.03212484	     -0.06440145	     13.27069400	      3.35748348	     -1.71531486	     -0.02066737	      0.04897133	     84.21453563	    118.62441632	     13.68897959	      0.00000000
      0.34789885	      0.00311531	      0.00030886	      1.66574369	     24.68180871	     45.69171887	      0.00000000	      0.00000000	      0.00000000	     18.14049890	     46.14105592	      0.22296815	      0.00000000	     -0.56567861	      0.00000000	      0.00000000	      0.00000001	      0.00000000	      0.03275850	      0.02700402	      0.02787460	      0.02805815	      0.05787791	      0.06231308	      0.06453167	      0.05636890	      0.05466838	      0.05274769	      0.01525851	      0.01651186	      0.06550154	      0.04489616	      0.05653833	      0.07763070	     -0.10357501	     -0.06121720	     -0.01946712	      0.04213798	      0.08042570	      0.00699743	     -0.02930142	      0.00773722	      0.00000079	     -0.32847694	      0.00000060	     -0.00000086	      2.76307435	     50.99597937	     -9.56042239	      5.21997485	     -0.02578839	      1.48581788	     -2.76307435	    -50.99597937	      9.56042239	     -1.74637766	      0.02558040	     -0.48301696	     -3.31599387	     20.97615968	     -3.40468921	      0.94473225	     -0.02138609	     -1.00501789	      3.31599387	    -20.97615968	      3.40468921	      0.28075727	      0.00368718	     -0.29758878	     11.70873336	     83.69905989	     -0.84271948	     -1.78156536	      0.31106666	      5.29447717	    -11.70873336	    -83.69905989	      0.84271948	      2.61680212	     -0.37983055	     -0.51935120	     57.08198520	    103.69853623	     -3.77934880	      3.71878032	     -1.18412303	     24.46295822	    -57.08198520	   -103.69853623	      3.77934880	     -1.63079443	      0.84783878	     -2.15377228	      0.00000000	      0.00000000	      0.00000000	      0.00000000	      0.00000000	      0.00000000	      0.00000000	      0.00000000	      0.00000000	      0.00000000	      0.00000000	      0.00000000	      0.00000000	      0.00000000	      0.00000000	      0.00000000	      0.00000000	      0.00000000	      0.00000000	      0.00000000	      0.00000000	      0.00000000	      0.00000000	      0.00000000	      0.00000000	      0.00000000	      0.00000000	      0.00000000	      0.00000000	      0.00000000	      0.00000000	      0.00000000	      0.00000000	      0.00000000	      0.00000000	      0.00000000	      0.04009381	    -15.03417564	     -3.73206692	      0.56823368	      0.01061770	     -0.03692696	     -0.04009381	     15.03417564	      3.73206692	     -1.91346698	     -0.02227173	      0.06942188	     84.51826572	    118.43151155	     15.49052511	      0.00000000
      0.35222158	      0.00314595	      0.00030026	      1.66574369	     25.00086278	     46.04520846	      0.00000000	      0.00000000	      0.00000000	     18.93025136	     47.02468377	      0.82235286	      0.00000000	      0.01517854	      0.00000000	      0.00000000	      0.00000001	      0.00000000	      0.03276716	      0.02701013	      0.02787095	      0.02805362	      0.05792324	      0.06235158	      0.06456715	      0.05636948	      0.05466633	      0.05274425	      0.01525851	      0.01651186	      0.06550154	      0.04489616	      0.05681776	      0.07787438	     -0.10369251	     -0.06136889	     -0.01869930	      0.04278188	      0.08101987	      0.00700790	     -0.02933800	      0.00767159	      0.00000079	     -0.32847694	      0.00000060	     -0.00000086	      2.76307435	     50.99597937	     -9.56042239	      5.21997485	     -0.02578839	      1.48581788	     -2.76307435	    -50.99597937	      9.56042239	     -1.74637766	      0.02558040	     -0.48301696	     -3.31599387	     20.97615968	     -3.40468921	      0.94473225	     -0.02138609	     -1.00501789	      3.31599387	    -20.97615968	      3.40468921	      0.28075727	      0.00368718	     -0.29758878	     11.27588667	     83.91602092	     -1.00414613	     -1.72258050	      0.30068748	      5.11926523	    -11.27588667	    -83.91602092	      1.00414613	      2.62359403	     -0.36654865	     -0.50547504	     57.02883454	    102.86514630	     -3.11687590	      3.41992873	     -1.18601523	     24.44969535	    -57.02883454	   -102.86514630	      3.11687590	     -1.58925795	      0.84655777	     -2.15728399	      0.00000000	      0.00000000	      0.00000000	      0.00000000	      0.00000000	      0.00000000	      0.00000000	      0.00000000	      0.00000000	      0.00000000	      0.00000000	      0.00000000	      0.00000000	      0.00000000	      0.00000000	      0.00000000	      0.00000000	      0.00000000	      0.00000000	      0.00000000	      0.00000000	      0.00000000	      0.00000000	      0.00000000	      0.00000000	      0.00000000	      0.00000000	      0.00000000	      0.00000000	      0.00000000	      0.00000000	      0.00000000	      0.00000000	      0.00000000	      0.00000000	      0.00000000	      0.08597752	    -16.79484191	     -4.17282891	      0.63588100	      0.01282134	     -0.03874335	     -0.08597752	     16.79484191	      4.17282891	     -2.13968664	     -0.02582004	      0.06007603	     84.67616251	    117.65730410	     17.30568138	      0.00000000
      0.35654430	      0.00317578	      0.00029016	      1.66574369	     25.42073290	     46.55227784	      0.00000000	      0.00000000	      0.00000000	     19.23509298	     47.45223392	      0.53370535	      0.00000000	     -0.25109782	      0.00000000	      0.00000000	      0.00000001	      0.00000000	      0.03277641	      0.02701675	      0.02786927	      0.02805107	      0.05797009	      0.06239161	      0.06460411	      0.05637183	      0.05466602	      0.05274256	      0.01525851	      0.01651186	      0.06550154	      0.04489616	      0.05711611	      0.07813844	     -0.10374640	     -0.06145422	     -0.01790557	      0.04345138	      0.08163854	      0.00704992	     -0.02934344	      0.00763926	      0.00000079	     -0.32847694	      0.00000060	     -0.00000086	      2.76307435	     50.99597937	     -9.56042239	      5.21997485	     -0.02578839	      1.48581788	     -2.76307435	    -50.99597937	      9.56042239	     -1.74637766	      0.02558040	     -0.48301696	     -3.31599387	     20.97615968	     -3.40468921	      0.94473225	     -0.02138609	     -1.00501789	      3.31599387	    -20.97615968	      3.40468921	      0.28075727	      0.00368718	     -0.29758878	     11.08094540	     83.99805555	     -1.51440284	     -1.51261800	      0.29816473	      5.04444120	    -11.08094540	    -83.99805555	      1.51440284	      2.61284453	     -0.36138989	     -0.50089510	     57.06193297	    102.77362627	     -4.27302073	      3.90910092	     -1.18307384	     24.46762799	    -57.06193297	   -102.77362627	      4.27302073	     -1.63104072	      0.84588181	     -2.15646298	      0.00000000	      0.00000000	      0.00000000	      0.00000000	      0.00000000	      0.00000000	      0.00000000	      0.00000000	      0.00000000	      0.00000000	      0.00000000	      0.00000000	      0.00000000	      0.00000000	      0.00000000	      0.00000000	      0.00000000	      0.00000000	      0.00000000	      0.00000000	      0.00000000	      0.00000000	      0.00000000	      0.00000000	      0.00000000	      0.00000000	      0.00000000	      0.00000000	      0.00000000	      0.00000000	      0.00000000	      0.00000000	      0.00000000	      0.00000000	      0.00000000	      0.00000000	      0.00571540	    -18.20604519	     -4.41780038	      0.68607441	      0.01095711	     -0.04450687	     -0.00571540	     18.20604519	      4.41780038	     -2.27515219	     -0.02547124	      0.10226472	     84.73933032	    117.62967805	     18.73438214	      0.00000000
